M48
; DRILL file {KiCad 7.0.7} date Tue 07 Nov 2023 21:09:34 GMT
; FORMAT={-:-/ absolute / inch / decimal}
; #@! TF.CreationDate,2023-11-07T21:09:34+00:00
; #@! TF.GenerationSoftware,Kicad,Pcbnew,7.0.7
; #@! TF.FileFunction,Plated,1,2,PTH
FMAT,2
INCH
; #@! TA.AperFunction,Plated,PTH,ViaDrill
T1C0.0157
; #@! TA.AperFunction,Plated,PTH,ComponentDrill
T2C0.0236
; #@! TA.AperFunction,Plated,PTH,ComponentDrill
T3C0.0315
; #@! TA.AperFunction,Plated,PTH,ComponentDrill
T4C0.0394
; #@! TA.AperFunction,Plated,PTH,ComponentDrill
T5C0.0433
; #@! TA.AperFunction,Plated,PTH,ComponentDrill
T6C0.0591
; #@! TA.AperFunction,Plated,PTH,ComponentDrill
T7C0.1220
; #@! TA.AperFunction,Plated,PTH,ComponentDrill
T8C0.1413
%
G90
G05
T1
X4.0614Y-2.8657
X4.2323Y-3.3661
X4.5232Y-3.802
X4.7602Y-4.0547
X4.7909Y-3.8004
X5.0587Y-3.8004
X5.3268Y-3.8008
X5.5079Y-2.661
X5.5079Y-2.9276
X5.7474Y-2.7608
X5.8031Y-3.7795
X5.8295Y-2.7031
X5.8339Y-2.5965
X5.8827Y-2.6425
X5.8846Y-2.7248
X5.8906Y-2.5815
X5.9055Y-3.1102
X5.9539Y-3.4461
X5.9866Y-2.485
X6.0539Y-3.4933
X6.0736Y-2.7287
X6.096Y-2.6088
X6.1186Y-2.7334
X6.1618Y-3.1744
X6.1723Y-2.6949
X6.1965Y-2.7697
X6.2035Y-3.5012
X6.2393Y-2.6724
X6.2799Y-2.7039
X6.3268Y-2.485
X6.3421Y-4.2988
X6.398Y-3.1756
X6.4138Y-2.6185
X6.8657Y-3.1622
T3
X4.6841Y-3.1638
X4.6841Y-3.4638
X4.7341Y-2.6272
X4.7341Y-2.9272
X4.7841Y-3.1638
X4.7841Y-3.4638
X4.8341Y-2.6272
X4.8341Y-2.9272
X4.8841Y-3.1638
X4.8841Y-3.4638
X4.9341Y-2.6272
X4.9341Y-2.9272
X4.9841Y-3.1638
X4.9841Y-3.4638
X5.0341Y-2.6272
X5.0341Y-2.9272
X5.0841Y-3.1638
X5.0841Y-3.4638
X5.1341Y-2.6272
X5.1341Y-2.9272
X5.1841Y-3.1638
X5.1841Y-3.4638
X5.2341Y-2.6272
X5.2341Y-2.9272
X5.2841Y-3.1638
X5.2841Y-3.4638
X5.3341Y-2.6272
X5.3341Y-2.9272
X5.3841Y-3.1638
X5.3841Y-3.4638
T4
X3.7252Y-1.7714
X3.7252Y-1.8714
X4.7213Y-1.7783
X4.7213Y-1.8783
X5.3512Y-1.7783
X5.3512Y-1.8783
X5.7035Y-3.352
X5.7035Y-3.952
X5.8035Y-3.352
X5.8035Y-3.952
X5.9035Y-3.352
X5.9035Y-3.952
X5.9811Y-1.7783
X5.9811Y-1.8783
X6.0035Y-3.352
X6.0035Y-3.952
X6.1035Y-3.352
X6.1035Y-3.952
X6.2035Y-3.352
X6.2035Y-3.952
X6.3035Y-3.352
X6.3035Y-3.952
X6.4035Y-3.352
X6.4035Y-3.952
X6.5035Y-3.352
X6.5035Y-3.952
X6.611Y-1.7783
X6.611Y-1.8783
X6.615Y-2.4902
X6.615Y-2.5902
X6.615Y-2.6902
X6.615Y-2.7902
X6.615Y-2.8902
X6.6299Y-4.365
X6.7299Y-4.365
X6.9728Y-3.6169
X7.3406Y-3.6169
T5
X4.8815Y-4.178
X4.8815Y-4.3551
X5.1374Y-4.178
X5.1374Y-4.3551
X5.9728Y-4.178
X5.9728Y-4.3551
X6.2287Y-4.178
X6.2287Y-4.3551
X7.0571Y-2.585
X7.0571Y-3.1587
X7.1571Y-2.585
X7.1571Y-3.1587
X7.2571Y-2.585
X7.2571Y-3.1587
T6
X3.7205Y-3.8366
X3.7205Y-4.0335
X3.8189Y-3.935
X3.8189Y-4.4075
X4.0157Y-3.8366
X4.0157Y-4.0335
X4.2126Y-3.935
X4.2126Y-4.4075
X4.311Y-3.8366
X4.311Y-4.0335
T7
X7.2912Y-4.1034
T8
X7.1023Y-3.9735
X7.1023Y-4.2294
T2
G00X3.9961Y-1.7714
M15
G01X4.0354Y-1.7714
M16
G05
G00X3.9961Y-2.0981
M15
G01X4.0354Y-2.0981
M16
G05
G00X3.9961Y-2.2202
M15
G01X4.0354Y-2.2202
M16
G05
G00X4.9921Y-1.7783
M15
G01X5.0315Y-1.7783
M16
G05
G00X4.9921Y-2.1051
M15
G01X5.0315Y-2.1051
M16
G05
G00X4.9921Y-2.2272
M15
G01X5.0315Y-2.2272
M16
G05
G00X5.622Y-1.7783
M15
G01X5.6614Y-1.7783
M16
G05
G00X5.622Y-2.1051
M15
G01X5.6614Y-2.1051
M16
G05
G00X5.622Y-2.2272
M15
G01X5.6614Y-2.2272
M16
G05
G00X6.252Y-1.7783
M15
G01X6.2913Y-1.7783
M16
G05
G00X6.252Y-2.1051
M15
G01X6.2913Y-2.1051
M16
G05
G00X6.252Y-2.2272
M15
G01X6.2913Y-2.2272
M16
G05
G00X6.8819Y-1.7783
M15
G01X6.9213Y-1.7783
M16
G05
G00X6.8819Y-2.1051
M15
G01X6.9213Y-2.1051
M16
G05
G00X6.8819Y-2.2272
M15
G01X6.9213Y-2.2272
M16
G05
T0
M30
