%TF.GenerationSoftware,KiCad,Pcbnew,7.0.7*%
%TF.CreationDate,2023-11-07T21:09:30+00:00*%
%TF.ProjectId,clock_divider,636c6f63-6b5f-4646-9976-696465722e6b,rev?*%
%TF.SameCoordinates,Original*%
%TF.FileFunction,Soldermask,Top*%
%TF.FilePolarity,Negative*%
%FSLAX46Y46*%
G04 Gerber Fmt 4.6, Leading zero omitted, Abs format (unit mm)*
G04 Created by KiCad (PCBNEW 7.0.7) date 2023-11-07 21:09:30*
%MOMM*%
%LPD*%
G01*
G04 APERTURE LIST*
G04 Aperture macros list*
%AMRoundRect*
0 Rectangle with rounded corners*
0 $1 Rounding radius*
0 $2 $3 $4 $5 $6 $7 $8 $9 X,Y pos of 4 corners*
0 Add a 4 corners polygon primitive as box body*
4,1,4,$2,$3,$4,$5,$6,$7,$8,$9,$2,$3,0*
0 Add four circle primitives for the rounded corners*
1,1,$1+$1,$2,$3*
1,1,$1+$1,$4,$5*
1,1,$1+$1,$6,$7*
1,1,$1+$1,$8,$9*
0 Add four rect primitives between the rounded corners*
20,1,$1+$1,$2,$3,$4,$5,0*
20,1,$1+$1,$4,$5,$6,$7,0*
20,1,$1+$1,$6,$7,$8,$9,0*
20,1,$1+$1,$8,$9,$2,$3,0*%
G04 Aperture macros list end*
%ADD10RoundRect,0.225000X0.250000X-0.225000X0.250000X0.225000X-0.250000X0.225000X-0.250000X-0.225000X0*%
%ADD11RoundRect,0.225000X-0.225000X-0.250000X0.225000X-0.250000X0.225000X0.250000X-0.225000X0.250000X0*%
%ADD12C,1.500000*%
%ADD13R,1.500000X1.500000*%
%ADD14R,1.700000X1.700000*%
%ADD15O,1.700000X1.700000*%
%ADD16RoundRect,0.650000X-0.650000X-0.650000X0.650000X-0.650000X0.650000X0.650000X-0.650000X0.650000X0*%
%ADD17O,3.100000X2.300000*%
%ADD18RoundRect,0.218750X-0.256250X0.218750X-0.256250X-0.218750X0.256250X-0.218750X0.256250X0.218750X0*%
%ADD19RoundRect,0.218750X0.256250X-0.218750X0.256250X0.218750X-0.256250X0.218750X-0.256250X-0.218750X0*%
%ADD20RoundRect,0.200000X-0.200000X-0.275000X0.200000X-0.275000X0.200000X0.275000X-0.200000X0.275000X0*%
%ADD21C,2.000000*%
%ADD22R,1.600000X1.600000*%
%ADD23O,1.600000X1.600000*%
%ADD24RoundRect,0.125000X0.353553X-0.530330X0.530330X-0.353553X-0.353553X0.530330X-0.530330X0.353553X0*%
%ADD25RoundRect,0.125000X-0.353553X-0.530330X0.530330X0.353553X0.353553X0.530330X-0.530330X-0.353553X0*%
%ADD26RoundRect,0.200000X0.275000X-0.200000X0.275000X0.200000X-0.275000X0.200000X-0.275000X-0.200000X0*%
%ADD27RoundRect,0.200000X-0.275000X0.200000X-0.275000X-0.200000X0.275000X-0.200000X0.275000X0.200000X0*%
%ADD28RoundRect,0.200000X0.200000X0.275000X-0.200000X0.275000X-0.200000X-0.275000X0.200000X-0.275000X0*%
%ADD29O,1.905000X2.000000*%
%ADD30R,1.905000X2.000000*%
%ADD31C,4.650000*%
%ADD32C,5.385000*%
%ADD33RoundRect,0.150000X0.587500X0.150000X-0.587500X0.150000X-0.587500X-0.150000X0.587500X-0.150000X0*%
%ADD34RoundRect,0.150000X-0.587500X-0.150000X0.587500X-0.150000X0.587500X0.150000X-0.587500X0.150000X0*%
%ADD35RoundRect,0.150000X-0.825000X-0.150000X0.825000X-0.150000X0.825000X0.150000X-0.825000X0.150000X0*%
%ADD36R,2.250000X2.250000*%
%ADD37C,2.250000*%
G04 APERTURE END LIST*
D10*
%TO.C,C4*%
X178000000Y-62785000D03*
X178000000Y-61235000D03*
%TD*%
D11*
%TO.C,C5*%
X184775000Y-85500000D03*
X183225000Y-85500000D03*
%TD*%
D10*
%TO.C,C7*%
X174380000Y-78785000D03*
X174380000Y-77235000D03*
%TD*%
D11*
%TO.C,C11*%
X181785000Y-61835000D03*
X183335000Y-61835000D03*
%TD*%
D12*
%TO.C,U6*%
X144870000Y-85140000D03*
X147410000Y-85140000D03*
X149950000Y-85140000D03*
X152490000Y-85140000D03*
X155030000Y-85140000D03*
X157570000Y-85140000D03*
X160110000Y-85140000D03*
X162650000Y-85140000D03*
X165190000Y-85140000D03*
X165190000Y-100380000D03*
X162650000Y-100380000D03*
X160110000Y-100380000D03*
X157570000Y-100380000D03*
X155030000Y-100380000D03*
X152490000Y-100380000D03*
X149950000Y-100380000D03*
X147410000Y-100380000D03*
D13*
X144870000Y-100380000D03*
%TD*%
D14*
%TO.C,J16*%
X94620000Y-44992500D03*
D15*
X94620000Y-47532500D03*
%TD*%
D14*
%TO.C,J15*%
X167920000Y-45170000D03*
D15*
X167920000Y-47710000D03*
%TD*%
D14*
%TO.C,J14*%
X151920000Y-45170000D03*
D15*
X151920000Y-47710000D03*
%TD*%
D14*
%TO.C,J13*%
X135920000Y-45170000D03*
D15*
X135920000Y-47710000D03*
%TD*%
D14*
%TO.C,J12*%
X119920000Y-45170000D03*
D15*
X119920000Y-47710000D03*
%TD*%
D16*
%TO.C,J10*%
X175300000Y-53470000D03*
X175300000Y-45170000D03*
D17*
X175300000Y-56570000D03*
%TD*%
D18*
%TO.C,D10*%
X118070000Y-96630000D03*
X118070000Y-98205000D03*
%TD*%
D19*
%TO.C,D1*%
X105040000Y-71277500D03*
X105040000Y-69702500D03*
%TD*%
D10*
%TO.C,C9*%
X172529999Y-77235000D03*
X172529999Y-78785000D03*
%TD*%
D20*
%TO.C,R18*%
X152525000Y-82020000D03*
X154175000Y-82020000D03*
%TD*%
%TO.C,R17*%
X152645000Y-76440000D03*
X154295000Y-76440000D03*
%TD*%
D21*
%TO.C,SW1*%
X130490000Y-110620000D03*
X123990000Y-110620000D03*
X130490000Y-106120000D03*
X123990000Y-106120000D03*
%TD*%
D11*
%TO.C,C13*%
X181785000Y-59985000D03*
X183335000Y-59985000D03*
%TD*%
D22*
%TO.C,U4*%
X135485000Y-66730000D03*
D23*
X132945000Y-66730000D03*
X130405000Y-66730000D03*
X127865000Y-66730000D03*
X125325000Y-66730000D03*
X122785000Y-66730000D03*
X120245000Y-66730000D03*
X120245000Y-74350000D03*
X122785000Y-74350000D03*
X125325000Y-74350000D03*
X127865000Y-74350000D03*
X130405000Y-74350000D03*
X132945000Y-74350000D03*
X135485000Y-74350000D03*
%TD*%
D18*
%TO.C,D7*%
X138470000Y-96620000D03*
X138470000Y-98195000D03*
%TD*%
%TO.C,D8*%
X131670000Y-96610000D03*
X131670000Y-98185000D03*
%TD*%
D24*
%TO.C,U5*%
X151397930Y-67357728D03*
X151963616Y-66792043D03*
X152529301Y-66226357D03*
X153094986Y-65660672D03*
X153660672Y-65094986D03*
X154226357Y-64529301D03*
X154792043Y-63963616D03*
X155357728Y-63397930D03*
D25*
X157302272Y-63397930D03*
X157867957Y-63963616D03*
X158433643Y-64529301D03*
X158999328Y-65094986D03*
X159565014Y-65660672D03*
X160130699Y-66226357D03*
X160696384Y-66792043D03*
X161262070Y-67357728D03*
D24*
X161262070Y-69302272D03*
X160696384Y-69867957D03*
X160130699Y-70433643D03*
X159565014Y-70999328D03*
X158999328Y-71565014D03*
X158433643Y-72130699D03*
X157867957Y-72696384D03*
X157302272Y-73262070D03*
D25*
X155357728Y-73262070D03*
X154792043Y-72696384D03*
X154226357Y-72130699D03*
X153660672Y-71565014D03*
X153094986Y-70999328D03*
X152529301Y-70433643D03*
X151963616Y-69867957D03*
X151397930Y-69302272D03*
%TD*%
D26*
%TO.C,R13*%
X143310000Y-41565000D03*
X143310000Y-39915000D03*
%TD*%
%TO.C,R12*%
X127300000Y-41575000D03*
X127300000Y-39925000D03*
%TD*%
%TO.C,R9*%
X102000000Y-41575000D03*
X102000000Y-39925000D03*
%TD*%
D27*
%TO.C,R1*%
X185955000Y-70540000D03*
X185955000Y-72190000D03*
%TD*%
D28*
%TO.C,R3*%
X96165000Y-87000000D03*
X94515000Y-87000000D03*
%TD*%
D29*
%TO.C,U2*%
X179250000Y-80230000D03*
X181790000Y-80230000D03*
D30*
X184330000Y-80230000D03*
%TD*%
D19*
%TO.C,D4*%
X145190000Y-41487500D03*
X145190000Y-39912500D03*
%TD*%
D14*
%TO.C,J1*%
X177110000Y-91870000D03*
%TD*%
D28*
%TO.C,R22*%
X159977500Y-76440000D03*
X158327500Y-76440000D03*
%TD*%
D20*
%TO.C,R2*%
X94515000Y-88640000D03*
X96165000Y-88640000D03*
%TD*%
D16*
%TO.C,J7*%
X127300000Y-53470000D03*
X127300000Y-45170000D03*
D17*
X127300000Y-56570000D03*
%TD*%
D16*
%TO.C,J6*%
X102000000Y-53292500D03*
X102000000Y-44992500D03*
D17*
X102000000Y-56392500D03*
%TD*%
D28*
%TO.C,R4*%
X109500000Y-89900000D03*
X107850000Y-89900000D03*
%TD*%
D11*
%TO.C,C10*%
X104470000Y-84240000D03*
X106020000Y-84240000D03*
%TD*%
D27*
%TO.C,R23*%
X123070000Y-96532500D03*
X123070000Y-98182500D03*
%TD*%
D21*
%TO.C,SW2*%
X158210000Y-110620000D03*
X151710000Y-110620000D03*
X158210000Y-106120000D03*
X151710000Y-106120000D03*
%TD*%
D28*
%TO.C,R20*%
X159967500Y-82070000D03*
X158317500Y-82070000D03*
%TD*%
D31*
%TO.C,J3*%
X185197500Y-104226000D03*
D32*
X180397500Y-107426000D03*
X180397500Y-100926000D03*
%TD*%
D33*
%TO.C,Q1*%
X154407500Y-80150000D03*
X154407500Y-78250000D03*
X152532500Y-79200000D03*
%TD*%
D34*
%TO.C,Q2*%
X158220000Y-78310000D03*
X158220000Y-80210000D03*
X160095000Y-79260000D03*
%TD*%
D26*
%TO.C,R14*%
X161090000Y-107765000D03*
X161090000Y-106115000D03*
%TD*%
%TO.C,R15*%
X159300000Y-41565000D03*
X159300000Y-39915000D03*
%TD*%
D20*
%TO.C,R8*%
X182680001Y-72155000D03*
X184330001Y-72155000D03*
%TD*%
D27*
%TO.C,R19*%
X136670000Y-98192500D03*
X136670000Y-96542500D03*
%TD*%
D18*
%TO.C,D9*%
X124870000Y-98185000D03*
X124870000Y-96610000D03*
%TD*%
D26*
%TO.C,R16*%
X175300000Y-41575000D03*
X175300000Y-39925000D03*
%TD*%
D27*
%TO.C,R11*%
X120910000Y-104465000D03*
X120910000Y-106115000D03*
%TD*%
D14*
%TO.C,J2*%
X186450000Y-91870000D03*
%TD*%
%TO.C,J5*%
X170940000Y-110870000D03*
D15*
X168400000Y-110870000D03*
%TD*%
D17*
%TO.C,J9*%
X159300000Y-56570000D03*
D16*
X159300000Y-45170000D03*
X159300000Y-53470000D03*
%TD*%
D26*
%TO.C,R7*%
X103160000Y-71355000D03*
X103160000Y-69705000D03*
%TD*%
D19*
%TO.C,D5*%
X161180000Y-41487500D03*
X161180000Y-39912500D03*
%TD*%
D30*
%TO.C,U3*%
X184330000Y-65660000D03*
D29*
X181790000Y-65660000D03*
X179250000Y-65660000D03*
%TD*%
D19*
%TO.C,D2*%
X103880000Y-39922500D03*
X103880000Y-41497500D03*
%TD*%
D14*
%TO.C,J11*%
X168020000Y-63250000D03*
D15*
X168020000Y-65790000D03*
X168020000Y-68330000D03*
X168020000Y-70870000D03*
X168020000Y-73410000D03*
%TD*%
D19*
%TO.C,D6*%
X177180000Y-41497500D03*
X177180000Y-39922500D03*
%TD*%
D20*
%TO.C,R5*%
X107850000Y-88290000D03*
X109500000Y-88290000D03*
%TD*%
D35*
%TO.C,U1*%
X99525000Y-86095000D03*
X99525000Y-87365000D03*
X99525000Y-88635000D03*
X99525000Y-89905000D03*
X104475000Y-89905000D03*
X104475000Y-88635000D03*
X104475000Y-87365000D03*
X104475000Y-86095000D03*
%TD*%
D16*
%TO.C,J8*%
X143300000Y-53470000D03*
X143300000Y-45170000D03*
D17*
X143300000Y-56570000D03*
%TD*%
D22*
%TO.C,U7*%
X136755000Y-80360000D03*
D23*
X134215000Y-80360000D03*
X131675000Y-80360000D03*
X129135000Y-80360000D03*
X126595000Y-80360000D03*
X124055000Y-80360000D03*
X121515000Y-80360000D03*
X118975000Y-80360000D03*
X118975000Y-87980000D03*
X121515000Y-87980000D03*
X124055000Y-87980000D03*
X126595000Y-87980000D03*
X129135000Y-87980000D03*
X131675000Y-87980000D03*
X134215000Y-87980000D03*
X136755000Y-87980000D03*
%TD*%
D19*
%TO.C,D3*%
X129180000Y-41497500D03*
X129180000Y-39922500D03*
%TD*%
D27*
%TO.C,R21*%
X129870000Y-96532500D03*
X129870000Y-98182500D03*
%TD*%
D20*
%TO.C,R6*%
X182680001Y-70545000D03*
X184330001Y-70545000D03*
%TD*%
D36*
%TO.C,J4*%
X109500000Y-102450000D03*
D37*
X102000000Y-102450000D03*
X94500000Y-102450000D03*
X107000000Y-99950000D03*
X97000000Y-99950000D03*
X109500000Y-97450000D03*
X94500000Y-97450000D03*
X102000000Y-97450000D03*
X107000000Y-111950000D03*
X97000000Y-111950000D03*
%TD*%
D27*
%TO.C,R24*%
X116270000Y-96572500D03*
X116270000Y-98222500D03*
%TD*%
M02*
