%TF.GenerationSoftware,KiCad,Pcbnew,7.0.7*%
%TF.CreationDate,2023-11-07T21:09:30+00:00*%
%TF.ProjectId,clock_divider,636c6f63-6b5f-4646-9976-696465722e6b,rev?*%
%TF.SameCoordinates,Original*%
%TF.FileFunction,Soldermask,Bot*%
%TF.FilePolarity,Negative*%
%FSLAX46Y46*%
G04 Gerber Fmt 4.6, Leading zero omitted, Abs format (unit mm)*
G04 Created by KiCad (PCBNEW 7.0.7) date 2023-11-07 21:09:30*
%MOMM*%
%LPD*%
G01*
G04 APERTURE LIST*
G04 Aperture macros list*
%AMRoundRect*
0 Rectangle with rounded corners*
0 $1 Rounding radius*
0 $2 $3 $4 $5 $6 $7 $8 $9 X,Y pos of 4 corners*
0 Add a 4 corners polygon primitive as box body*
4,1,4,$2,$3,$4,$5,$6,$7,$8,$9,$2,$3,0*
0 Add four circle primitives for the rounded corners*
1,1,$1+$1,$2,$3*
1,1,$1+$1,$4,$5*
1,1,$1+$1,$6,$7*
1,1,$1+$1,$8,$9*
0 Add four rect primitives between the rounded corners*
20,1,$1+$1,$2,$3,$4,$5,0*
20,1,$1+$1,$4,$5,$6,$7,0*
20,1,$1+$1,$6,$7,$8,$9,0*
20,1,$1+$1,$8,$9,$2,$3,0*%
G04 Aperture macros list end*
%ADD10C,1.500000*%
%ADD11R,1.500000X1.500000*%
%ADD12R,1.700000X1.700000*%
%ADD13O,1.700000X1.700000*%
%ADD14RoundRect,0.650000X-0.650000X-0.650000X0.650000X-0.650000X0.650000X0.650000X-0.650000X0.650000X0*%
%ADD15O,3.100000X2.300000*%
%ADD16C,2.000000*%
%ADD17R,1.600000X1.600000*%
%ADD18O,1.600000X1.600000*%
%ADD19O,1.905000X2.000000*%
%ADD20R,1.905000X2.000000*%
%ADD21RoundRect,0.225000X-0.250000X0.225000X-0.250000X-0.225000X0.250000X-0.225000X0.250000X0.225000X0*%
%ADD22RoundRect,0.225000X0.225000X0.250000X-0.225000X0.250000X-0.225000X-0.250000X0.225000X-0.250000X0*%
%ADD23C,4.650000*%
%ADD24C,5.385000*%
%ADD25RoundRect,0.200000X-0.200000X-0.275000X0.200000X-0.275000X0.200000X0.275000X-0.200000X0.275000X0*%
%ADD26R,2.250000X2.250000*%
%ADD27C,2.250000*%
G04 APERTURE END LIST*
D10*
%TO.C,U6*%
X144870000Y-85140000D03*
X147410000Y-85140000D03*
X149950000Y-85140000D03*
X152490000Y-85140000D03*
X155030000Y-85140000D03*
X157570000Y-85140000D03*
X160110000Y-85140000D03*
X162650000Y-85140000D03*
X165190000Y-85140000D03*
X165190000Y-100380000D03*
X162650000Y-100380000D03*
X160110000Y-100380000D03*
X157570000Y-100380000D03*
X155030000Y-100380000D03*
X152490000Y-100380000D03*
X149950000Y-100380000D03*
X147410000Y-100380000D03*
D11*
X144870000Y-100380000D03*
%TD*%
D12*
%TO.C,J16*%
X94620000Y-44992500D03*
D13*
X94620000Y-47532500D03*
%TD*%
D12*
%TO.C,J15*%
X167920000Y-45170000D03*
D13*
X167920000Y-47710000D03*
%TD*%
D12*
%TO.C,J14*%
X151920000Y-45170000D03*
D13*
X151920000Y-47710000D03*
%TD*%
D12*
%TO.C,J13*%
X135920000Y-45170000D03*
D13*
X135920000Y-47710000D03*
%TD*%
D12*
%TO.C,J12*%
X119920000Y-45170000D03*
D13*
X119920000Y-47710000D03*
%TD*%
D14*
%TO.C,J10*%
X175300000Y-53470000D03*
X175300000Y-45170000D03*
D15*
X175300000Y-56570000D03*
%TD*%
D16*
%TO.C,SW1*%
X130490000Y-110620000D03*
X123990000Y-110620000D03*
X130490000Y-106120000D03*
X123990000Y-106120000D03*
%TD*%
D17*
%TO.C,U4*%
X135485000Y-66730000D03*
D18*
X132945000Y-66730000D03*
X130405000Y-66730000D03*
X127865000Y-66730000D03*
X125325000Y-66730000D03*
X122785000Y-66730000D03*
X120245000Y-66730000D03*
X120245000Y-74350000D03*
X122785000Y-74350000D03*
X125325000Y-74350000D03*
X127865000Y-74350000D03*
X130405000Y-74350000D03*
X132945000Y-74350000D03*
X135485000Y-74350000D03*
%TD*%
D19*
%TO.C,U2*%
X179250000Y-80230000D03*
X181790000Y-80230000D03*
D20*
X184330000Y-80230000D03*
%TD*%
D21*
%TO.C,C3*%
X162840000Y-70225000D03*
X162840000Y-71775000D03*
%TD*%
D12*
%TO.C,J1*%
X177110000Y-91870000D03*
%TD*%
D14*
%TO.C,J7*%
X127300000Y-53470000D03*
X127300000Y-45170000D03*
D15*
X127300000Y-56570000D03*
%TD*%
D21*
%TO.C,C6*%
X164420000Y-70225000D03*
X164420000Y-71775000D03*
%TD*%
D14*
%TO.C,J6*%
X102000000Y-53292500D03*
X102000000Y-44992500D03*
D15*
X102000000Y-56392500D03*
%TD*%
D21*
%TO.C,C8*%
X148270000Y-70225000D03*
X148270000Y-71775000D03*
%TD*%
D16*
%TO.C,SW2*%
X158210000Y-110620000D03*
X151710000Y-110620000D03*
X158210000Y-106120000D03*
X151710000Y-106120000D03*
%TD*%
D22*
%TO.C,C2*%
X134975000Y-90990000D03*
X133425000Y-90990000D03*
%TD*%
D23*
%TO.C,J3*%
X185197500Y-104226000D03*
D24*
X180397500Y-107426000D03*
X180397500Y-100926000D03*
%TD*%
D12*
%TO.C,J2*%
X186450000Y-91870000D03*
%TD*%
D22*
%TO.C,C1*%
X134955000Y-76380000D03*
X133405000Y-76380000D03*
%TD*%
D12*
%TO.C,J5*%
X170940000Y-110870000D03*
D13*
X168400000Y-110870000D03*
%TD*%
D15*
%TO.C,J9*%
X159300000Y-56570000D03*
D14*
X159300000Y-45170000D03*
X159300000Y-53470000D03*
%TD*%
D20*
%TO.C,U3*%
X184330000Y-65660000D03*
D19*
X181790000Y-65660000D03*
X179250000Y-65660000D03*
%TD*%
D12*
%TO.C,J11*%
X168020000Y-63250000D03*
D13*
X168020000Y-65790000D03*
X168020000Y-68330000D03*
X168020000Y-70870000D03*
X168020000Y-73410000D03*
%TD*%
D14*
%TO.C,J8*%
X143300000Y-53470000D03*
X143300000Y-45170000D03*
D15*
X143300000Y-56570000D03*
%TD*%
D17*
%TO.C,U7*%
X136755000Y-80360000D03*
D18*
X134215000Y-80360000D03*
X131675000Y-80360000D03*
X129135000Y-80360000D03*
X126595000Y-80360000D03*
X124055000Y-80360000D03*
X121515000Y-80360000D03*
X118975000Y-80360000D03*
X118975000Y-87980000D03*
X121515000Y-87980000D03*
X124055000Y-87980000D03*
X126595000Y-87980000D03*
X129135000Y-87980000D03*
X131675000Y-87980000D03*
X134215000Y-87980000D03*
X136755000Y-87980000D03*
%TD*%
D25*
%TO.C,R10*%
X151065000Y-65750000D03*
X152715000Y-65750000D03*
%TD*%
D26*
%TO.C,J4*%
X109500000Y-102450000D03*
D27*
X102000000Y-102450000D03*
X94500000Y-102450000D03*
X107000000Y-99950000D03*
X97000000Y-99950000D03*
X109500000Y-97450000D03*
X94500000Y-97450000D03*
X102000000Y-97450000D03*
X107000000Y-111950000D03*
X97000000Y-111950000D03*
%TD*%
M02*
